<?xml version="1.0" standalone="no"?>
<!DOCTYPE svg PUBLIC "-//W3C//DTD SVG 20010904//EN"
 "http://www.w3.org/TR/2001/REC-SVG-20010904/DTD/svg10.dtd">
<svg version="1.0" xmlns="http://www.w3.org/2000/svg"
 width="1773.000000pt" height="1773.000000pt" viewBox="0 0 1773.000000 1773.000000"
 preserveAspectRatio="xMidYMid meet">
<metadata>
Created by potrace 1.16, written by Peter Selinger 2001-2019
</metadata>
<g transform="translate(0.000000,1773.000000) scale(0.100000,-0.100000)"
fill="#000000" stroke="none">
<path d="M8725 13433 c-138 -5 -363 -24 -500 -44 -502 -71 -920 -202 -1400
-439 -176 -87 -431 -230 -445 -250 -3 -4 -48 -35 -100 -70 -111 -74 -223 -158
-335 -249 -178 -146 -529 -500 -601 -606 -18 -27 -68 -93 -109 -145 -146 -184
-330 -471 -429 -667 -339 -678 -506 -1369 -506 -2098 1 -904 252 -1750 739
-2490 47 -71 86 -133 86 -136 0 -13 151 -207 271 -349 141 -166 330 -355 484
-485 52 -44 104 -88 115 -98 76 -71 371 -274 540 -372 55 -32 112 -66 126 -76
104 -71 481 -236 728 -319 365 -123 701 -196 1066 -232 168 -16 672 -16 840 0
364 36 690 106 1062 230 254 85 583 231 753 334 19 11 73 44 120 71 180 106
442 288 545 379 22 19 78 68 125 109 151 131 309 290 442 446 123 144 283 348
283 362 0 3 32 53 71 111 433 644 687 1393 745 2199 22 303 2 754 -47 1046
-87 525 -278 1070 -532 1520 -74 131 -227 360 -325 487 -51 66 -107 140 -125
166 -105 148 -472 510 -687 677 -278 216 -495 353 -790 499 -541 268 -975 397
-1570 466 -103 12 -515 27 -640 23z m519 -2025 c-18 -378 92 -801 329 -1261
l92 -178 0 -107 c0 -97 -3 -112 -29 -167 -44 -91 -188 -228 -300 -285 -89 -45
-124 -47 -68 -4 37 29 102 121 127 180 25 57 24 167 -2 224 -11 25 -66 94
-123 155 -180 192 -263 320 -313 481 -44 140 -53 252 -31 367 5 26 4 28 -13
19 -38 -21 -226 -196 -297 -278 -219 -250 -328 -506 -313 -733 12 -184 99
-350 237 -453 59 -44 28 -41 -67 6 -113 57 -217 158 -287 277 -142 245 -140
583 5 872 40 78 130 218 180 278 21 25 36 49 33 52 -10 9 265 279 371 363 174
140 440 324 467 324 4 0 5 -60 2 -132z m-331 -1829 c12 -16 17 -40 18 -93 1
-39 3 -143 5 -231 l3 -160 38 3 c89 7 231 34 412 77 163 39 207 46 269 43 126
-6 112 170 112 -1455 0 -1564 6 -1432 -70 -1512 -74 -77 -62 -76 -825 -76
-618 0 -675 1 -729 18 -66 21 -116 66 -147 134 -19 41 -19 81 -19 1440 0 1346
1 1399 18 1423 32 42 101 39 314 -15 184 -47 376 -85 429 -85 l29 0 0 233 c0
243 1 251 45 276 27 15 76 5 98 -20z"/>
</g>
</svg>
